<svg width="512" height="512" viewBox="0 0 512 512" fill="none" xmlns="http://www.w3.org/2000/svg">
<path fill-rule="evenodd" clip-rule="evenodd" d="M216.793 193C218.885 185.186 225.5 169 239 162.5C239 160.929 237.64 160 235.019 158.21C233.145 156.93 230.627 155.21 227.5 152.5C220.5 145.5 215.342 136.892 210.177 126.5C194.714 95.3839 162.604 74 125.5 74C79.2884 74 40.824 107.17 32.6172 151H26C22.6863 151 20 153.686 20 157V177C20 180.314 22.6863 183 26 183H32.1055C39.0823 228.307 78.2397 263 125.5 263C169.218 263 206.001 233.314 216.793 193ZM125 247C168.078 247 203 212.078 203 169C203 125.922 168.078 91 125 91C81.9218 91 47 125.922 47 169C47 212.078 81.9218 247 125 247Z" fill="black"/>
<path fill-rule="evenodd" clip-rule="evenodd" d="M74.9847 220.792C105.973 250.717 153.486 251.788 181.109 223.183C208.731 194.579 206.003 147.132 175.015 117.208C144.028 87.2829 96.5143 86.2125 68.8916 114.817C41.2688 143.421 43.9968 190.868 74.9847 220.792ZM93.5 113C114 101.5 149 105 164.5 117.5C153.412 133.493 146.132 141.886 133 155.5C130.84 155.79 129.632 155.73 127.5 155.5C113.236 140.323 105.508 131.367 93.5 113ZM171.435 148.243C173.778 145.899 177.577 145.899 179.92 148.243L181.354 149.676C183.697 152.019 183.697 155.818 181.354 158.161L170.042 169.473C167.699 171.816 163.9 171.816 161.556 169.473L160.123 168.04C157.78 165.697 157.78 161.898 160.123 159.554L171.435 148.243ZM57.5 171.5C62.5 209 89.5 228.5 114 231.5C90 219 65.5 194 57.5 171.5Z" fill="black"/>
<path d="M210.5 91.5C197.827 91.2869 182.56 85.7916 172 82C195.195 92.9446 205.253 103.374 217 131C216.856 111.616 220.87 102.785 235 90.5C228.033 91.3961 223.173 91.7131 210.5 91.5Z" fill="black"/>
<path fill-rule="evenodd" clip-rule="evenodd" d="M295.207 193C293.115 185.186 286.5 169 273 162.5C273 160.929 274.36 160 276.981 158.21C278.855 156.93 281.373 155.21 284.5 152.5C291.5 145.5 296.658 136.892 301.823 126.5C317.286 95.3839 349.396 74 386.5 74C432.712 74 471.176 107.17 479.383 151H486C489.314 151 492 153.686 492 157V177C492 180.314 489.314 183 486 183H479.894C472.918 228.307 433.76 263 386.5 263C342.782 263 305.999 233.314 295.207 193ZM387 247C343.922 247 309 212.078 309 169C309 125.922 343.922 91 387 91C430.078 91 465 125.922 465 169C465 212.078 430.078 247 387 247Z" fill="black"/>
<path fill-rule="evenodd" clip-rule="evenodd" d="M437.015 220.792C406.027 250.717 358.514 251.788 330.891 223.183C303.269 194.579 305.997 147.132 336.985 117.208C367.972 87.2829 415.486 86.2125 443.108 114.817C470.731 143.421 468.003 190.868 437.015 220.792ZM418.5 113C398 101.5 363 105 347.5 117.5C358.588 133.493 365.868 141.886 379 155.5C381.16 155.79 382.368 155.73 384.5 155.5C398.764 140.323 406.492 131.367 418.5 113ZM340.565 148.243C338.222 145.899 334.423 145.899 332.08 148.243L330.646 149.676C328.303 152.019 328.303 155.818 330.646 158.161L341.958 169.473C344.301 171.816 348.1 171.816 350.444 169.473L351.877 168.04C354.22 165.697 354.22 161.898 351.877 159.554L340.565 148.243ZM454.5 171.5C449.5 209 422.5 228.5 398 231.5C422 219 446.5 194 454.5 171.5Z" fill="black"/>
<path d="M301.5 91.5C314.173 91.2869 329.44 85.7916 340 82C316.805 92.9446 306.747 103.374 295 131C295.144 111.616 291.13 102.785 277 90.5C283.967 91.3961 288.827 91.7131 301.5 91.5Z" fill="black"/>
<ellipse cx="256" cy="124" rx="36" ry="35" fill="black"/>
<path d="M221 89V77.5C243.5 74.5 262.684 74.2645 288.5 77.5V89C269.5 89 263.5 85.5 255.5 85.5C248.498 84.9382 238.5 89 221 89Z" fill="black"/>
<path fill-rule="evenodd" clip-rule="evenodd" d="M219.083 43.7028C215.932 43.8451 213.5 46.447 213.5 49.6005V69.1469C213.5 72.7756 216.695 75.587 220.302 75.1887C228.349 74.3003 242.15 73 254 73C265.999 73 280.443 74.3332 288.739 75.222C292.334 75.6072 295.5 72.8006 295.5 69.1853V49.572C295.5 46.4302 293.08 43.8363 289.942 43.69C283.645 43.3963 271.997 43 255 43C237.754 43 225.608 43.408 219.083 43.7028ZM275 47H266V70H275V47Z" fill="black"/>
<path d="M121.54 356.74H229.18V446.74H207.4V373.12H142.24V446.74H121.54V356.74ZM85.72 332.26H246.1V349.18H85.72V332.26ZM98.32 308.14H236.2V324.52H98.32V308.14ZM135.58 380.68H216.22V394.36H135.58V380.68ZM135.58 402.1H216.22V415.6H135.58V402.1ZM133.06 423.88H216.22V440.26H133.06V423.88ZM223.06 277.72L235.66 293.2C198.76 299.32 145.12 301.48 100.48 301.12C100.12 296.44 98.14 289.24 96.34 284.92C140.44 284.92 192.64 282.76 223.06 277.72ZM146.38 292.66L168.88 297.16C156.64 341.98 135.04 384.82 93.46 408.76C90.58 403.9 84.28 395.8 79.96 391.66C118.12 371.14 137.92 331.54 146.38 292.66ZM301.54 356.74H409.18V446.74H387.4V373.12H322.24V446.74H301.54V356.74ZM265.72 332.26H426.1V349.18H265.72V332.26ZM278.32 308.14H416.2V324.52H278.32V308.14ZM315.58 380.68H396.22V394.36H315.58V380.68ZM315.58 402.1H396.22V415.6H315.58V402.1ZM313.06 423.88H396.22V440.26H313.06V423.88ZM403.06 277.72L415.66 293.2C378.76 299.32 325.12 301.48 280.48 301.12C280.12 296.44 278.14 289.24 276.34 284.92C320.44 284.92 372.64 282.76 403.06 277.72ZM326.38 292.66L348.88 297.16C336.64 341.98 315.04 384.82 273.46 408.76C270.58 403.9 264.28 395.8 259.96 391.66C298.12 371.14 317.92 331.54 326.38 292.66Z" fill="black"/>
</svg>
