<svg width="892" height="256" viewBox="0 0 892 256" fill="none" xmlns="http://www.w3.org/2000/svg">
<path fill-rule="evenodd" clip-rule="evenodd" d="M216.793 164C218.885 156.186 225.5 140 239 133.5C239 131.929 237.64 131 235.019 129.21C233.145 127.93 230.627 126.21 227.5 123.5C220.5 116.5 215.342 107.892 210.177 97.5C194.714 66.3839 162.604 45 125.5 45C79.2884 45 40.824 78.1701 32.6172 122H26C22.6863 122 20 124.686 20 128V148C20 151.314 22.6863 154 26 154H32.1055C39.0823 199.307 78.2397 234 125.5 234C169.218 234 206.001 204.314 216.793 164ZM125 218C168.078 218 203 183.078 203 140C203 96.9218 168.078 62 125 62C81.9218 62 47 96.9218 47 140C47 183.078 81.9218 218 125 218Z" fill="black"/>
<path fill-rule="evenodd" clip-rule="evenodd" d="M74.9847 191.792C105.973 221.717 153.486 222.788 181.109 194.183C208.731 165.579 206.003 118.132 175.015 88.2076C144.028 58.2829 96.5143 57.2125 68.8916 85.8167C41.2688 114.421 43.9968 161.868 74.9847 191.792ZM93.5 84C114 72.5 149 76 164.5 88.5C153.412 104.493 146.132 112.886 133 126.5C130.84 126.79 129.632 126.73 127.5 126.5C113.236 111.323 105.508 102.367 93.5 84ZM171.435 119.243C173.778 116.9 177.577 116.9 179.92 119.243L181.354 120.676C183.697 123.019 183.697 126.818 181.354 129.161L170.042 140.473C167.699 142.816 163.9 142.816 161.556 140.473L160.123 139.04C157.78 136.697 157.78 132.898 160.123 130.554L171.435 119.243ZM57.5 142.5C62.5 180 89.5 199.5 114 202.5C90 190 65.5 165 57.5 142.5Z" fill="black"/>
<path d="M210.5 62.5C197.827 62.2869 182.56 56.7916 172 53C195.195 63.9446 205.253 74.3741 217 102C216.856 82.616 220.87 73.7845 235 61.5C228.033 62.3961 223.173 62.7131 210.5 62.5Z" fill="black"/>
<path fill-rule="evenodd" clip-rule="evenodd" d="M295.207 164C293.115 156.186 286.5 140 273 133.5C273 131.929 274.36 131 276.981 129.21C278.855 127.93 281.373 126.21 284.5 123.5C291.5 116.5 296.658 107.892 301.823 97.5C317.286 66.3839 349.396 45 386.5 45C432.712 45 471.176 78.1701 479.383 122H486C489.314 122 492 124.686 492 128V148C492 151.314 489.314 154 486 154H479.894C472.918 199.307 433.76 234 386.5 234C342.782 234 305.999 204.314 295.207 164ZM387 218C343.922 218 309 183.078 309 140C309 96.9218 343.922 62 387 62C430.078 62 465 96.9218 465 140C465 183.078 430.078 218 387 218Z" fill="black"/>
<path fill-rule="evenodd" clip-rule="evenodd" d="M437.015 191.792C406.027 221.717 358.514 222.788 330.891 194.183C303.269 165.579 305.997 118.132 336.985 88.2076C367.972 58.2829 415.486 57.2125 443.108 85.8167C470.731 114.421 468.003 161.868 437.015 191.792ZM418.5 84C398 72.5 363 76 347.5 88.5C358.588 104.493 365.868 112.886 379 126.5C381.16 126.79 382.368 126.73 384.5 126.5C398.764 111.323 406.492 102.367 418.5 84ZM340.565 119.243C338.222 116.9 334.423 116.9 332.08 119.243L330.646 120.676C328.303 123.019 328.303 126.818 330.646 129.161L341.958 140.473C344.301 142.816 348.1 142.816 350.444 140.473L351.877 139.04C354.22 136.697 354.22 132.898 351.877 130.554L340.565 119.243ZM454.5 142.5C449.5 180 422.5 199.5 398 202.5C422 190 446.5 165 454.5 142.5Z" fill="black"/>
<path d="M301.5 62.5C314.173 62.2869 329.44 56.7916 340 53C316.805 63.9446 306.747 74.3741 295 102C295.144 82.616 291.13 73.7845 277 61.5C283.967 62.3961 288.827 62.7131 301.5 62.5Z" fill="black"/>
<ellipse cx="256" cy="95" rx="36" ry="35" fill="black"/>
<path d="M221 60V48.5C243.5 45.5 262.684 45.2645 288.5 48.5V60C269.5 60 263.5 56.5 255.5 56.5C248.498 55.9381 238.5 60 221 60Z" fill="black"/>
<path fill-rule="evenodd" clip-rule="evenodd" d="M219.083 14.7028C215.932 14.8451 213.5 17.447 213.5 20.6005V40.1469C213.5 43.7756 216.695 46.587 220.302 46.1887C228.349 45.3003 242.15 44 254 44C265.999 44 280.443 45.3332 288.739 46.222C292.334 46.6072 295.5 43.8006 295.5 40.1853V20.572C295.5 17.4302 293.08 14.8363 289.942 14.69C283.645 14.3963 271.997 14 255 14C237.754 14 225.608 14.408 219.083 14.7028ZM275 18H266V41H275V18Z" fill="black"/>
<path d="M557.54 131.74H665.18V221.74H643.4V148.12H578.24V221.74H557.54V131.74ZM521.72 107.26H682.1V124.18H521.72V107.26ZM534.32 83.14H672.2V99.52H534.32V83.14ZM571.58 155.68H652.22V169.36H571.58V155.68ZM571.58 177.1H652.22V190.6H571.58V177.1ZM569.06 198.88H652.22V215.26H569.06V198.88ZM659.06 52.72L671.66 68.2C634.76 74.32 581.12 76.48 536.48 76.12C536.12 71.44 534.14 64.24 532.34 59.92C576.44 59.92 628.64 57.76 659.06 52.72ZM582.38 67.66L604.88 72.16C592.64 116.98 571.04 159.82 529.46 183.76C526.58 178.9 520.28 170.8 515.96 166.66C554.12 146.14 573.92 106.54 582.38 67.66ZM737.54 131.74H845.18V221.74H823.4V148.12H758.24V221.74H737.54V131.74ZM701.72 107.26H862.1V124.18H701.72V107.26ZM714.32 83.14H852.2V99.52H714.32V83.14ZM751.58 155.68H832.22V169.36H751.58V155.68ZM751.58 177.1H832.22V190.6H751.58V177.1ZM749.06 198.88H832.22V215.26H749.06V198.88ZM839.06 52.72L851.66 68.2C814.76 74.32 761.12 76.48 716.48 76.12C716.12 71.44 714.14 64.24 712.34 59.92C756.44 59.92 808.64 57.76 839.06 52.72ZM762.38 67.66L784.88 72.16C772.64 116.98 751.04 159.82 709.46 183.76C706.58 178.9 700.28 170.8 695.96 166.66C734.12 146.14 753.92 106.54 762.38 67.66Z" fill="black"/>
</svg>
